{"asset":{"version":"2.0","generator":"THREE.GLTFExporter r175"},"scenes":[{"name":"AuxScene","nodes":[7]}],"scene":0,"nodes":[{"mesh":0},{"mesh":1},{"mesh":2},{"matrix":[4.419417382415921,0,-4.419417382415922,0,0,-6.25,0,0,4.419417382415922,0,4.419417382415921,0,0,0,0,1],"children":[0,1,2]},{"children":[3]},{"matrix":[1,0,0,0,0,1,0,0,0,0,1,0,-44.306150246291075,49.633548595011234,26.628481506880803,1],"children":[4]},{"children":[5]},{"children":[6]}],"bufferViews":[{"buffer":0,"byteOffset":0,"byteLength":319824,"target":34962,"byteStride":12},{"buffer":0,"byteOffset":319824,"byteLength":213216,"target":34962,"byteStride":8},{"buffer":0,"byteOffset":533040,"byteLength":319824,"target":34962,"byteStride":12},{"buffer":0,"byteOffset":852864,"byteLength":193104,"target":34962,"byteStride":12},{"buffer":0,"byteOffset":1045968,"byteLength":128736,"target":34962,"byteStride":8},{"buffer":0,"byteOffset":1174704,"byteLength":193104,"target":34962,"byteStride":12},{"buffer":0,"byteOffset":1367808,"byteLength":14112,"target":34962,"byteStride":12},{"buffer":0,"byteOffset":1381920,"byteLength":9408,"target":34962,"byteStride":8},{"buffer":0,"byteOffset":1391328,"byteLength":14112,"target":34962,"byteStride":12}],"buffers":[{"byteLength":1405440,"uri":"data:application/octet-stream;base64,"}],"accessors":[{"bufferView":0,"componentType":5126,"count":26652,"max":[16.300037384033203,16.30024528503418,2.5999999046325684],"min":[-0.3002449572086334,-0.30003708600997925,-0.6000000238418579],"type":"VEC3"},{"bufferView":1,"componentType":5126,"count":26652,"max":[16,16],"min":[0,-1.600000023841858],"type":"VEC2"},{"bufferView":2,"componentType":5126,"count":26652,"max":[0.9999812841415405,0.9999997615814209,1],"min":[-0.9999995827674866,-0.9999812841415405,-1],"type":"VEC3"},{"bufferView":3,"componentType":5126,"count":16092,"max":[12.213624000549316,12.300207138061523,2.5999999046325684],"min":[3.6997933387756348,3.7863597869873047,-0.6000000238418579],"type":"VEC3"},{"bufferView":4,"componentType":5126,"count":16092,"max":[12.213624000549316,12],"min":[3.7863597869873047,-1.600000023841858],"type":"VEC2"},{"bufferView":5,"componentType":5126,"count":16092,"max":[0.9998511075973511,0.9994185566902161,1],"min":[-0.9994186162948608,-0.9998510479927063,-1],"type":"VEC3"},{"bufferView":6,"componentType":5126,"count":1176,"max":[16.418785095214844,8.63137435913086,2.5999999046325684],"min":[7.368626117706299,-0.4187857508659363,-0.6000000238418579],"type":"VEC3"},{"bufferView":7,"componentType":5126,"count":1176,"max":[16.418785095214844,8.207110404968262],"min":[-0.4187857508659363,-1.600000023841858],"type":"VEC2"},{"bufferView":8,"componentType":5126,"count":1176,"max":[0.8848700523376465,1,1],"min":[-1,-0.8848699927330017,-1],"type":"VEC3"}],"materials":[{"pbrMetallicRoughness":{"baseColorFactor":[0.006512090790025684,0.1499597898006365,0.9646862478936612,1],"metallicFactor":0,"roughnessFactor":0.9},"doubleSided":true}],"meshes":[{"primitives":[{"mode":4,"attributes":{"POSITION":0,"TEXCOORD_0":1,"NORMAL":2},"material":0}]},{"primitives":[{"mode":4,"attributes":{"POSITION":3,"TEXCOORD_0":4,"NORMAL":5},"material":0}]},{"primitives":[{"mode":4,"attributes":{"POSITION":6,"TEXCOORD_0":7,"NORMAL":8},"material":0}]}]}